<svg width="61" height="61" viewBox="0 0 61 61" fill="none" xmlns="http://www.w3.org/2000/svg">
<circle cx="30.5" cy="30.5" r="28" stroke="#EEEEEE" stroke-width="5"/>
<mask id="path-2-inside-1_114_63" fill="white">
<path d="M48.9827 6.2381C54.7335 10.619 58.7411 16.9002 60.2909 23.9615C61.8407 31.0228 60.8319 38.405 57.4444 44.7916C54.0569 51.1782 48.511 56.1538 41.7957 58.8312C35.0804 61.5086 27.6324 61.7136 20.78 59.4097C13.9276 57.1058 8.1163 52.4427 4.38259 46.2522C0.648886 40.0616 -0.764496 32.7461 0.394515 25.6102C1.55353 18.4744 5.20957 11.9822 10.7106 7.2916C16.2117 2.60096 23.2 0.0168306 30.4293 8.18528e-05L30.4438 6.25844C24.6979 6.27176 19.1435 8.32564 14.7712 12.0538C10.399 15.7819 7.49313 20.942 6.57194 26.6136C5.65075 32.2852 6.77412 38.0996 9.7417 43.0199C12.7093 47.9402 17.3281 51.6465 22.7744 53.4776C28.2208 55.3088 34.1405 55.1459 39.4779 53.0179C44.8152 50.8898 49.2232 46.9351 51.9156 41.859C54.608 36.7829 55.4098 30.9155 54.178 25.3032C52.9462 19.6908 49.7609 14.6985 45.1902 11.2165L48.9827 6.2381Z"/>
</mask>
<path d="M48.9827 6.2381C54.7335 10.619 58.7411 16.9002 60.2909 23.9615C61.8407 31.0228 60.8319 38.405 57.4444 44.7916C54.0569 51.1782 48.511 56.1538 41.7957 58.8312C35.0804 61.5086 27.6324 61.7136 20.78 59.4097C13.9276 57.1058 8.1163 52.4427 4.38259 46.2522C0.648886 40.0616 -0.764496 32.7461 0.394515 25.6102C1.55353 18.4744 5.20957 11.9822 10.7106 7.2916C16.2117 2.60096 23.2 0.0168306 30.4293 8.18528e-05L30.4438 6.25844C24.6979 6.27176 19.1435 8.32564 14.7712 12.0538C10.399 15.7819 7.49313 20.942 6.57194 26.6136C5.65075 32.2852 6.77412 38.0996 9.7417 43.0199C12.7093 47.9402 17.3281 51.6465 22.7744 53.4776C28.2208 55.3088 34.1405 55.1459 39.4779 53.0179C44.8152 50.8898 49.2232 46.9351 51.9156 41.859C54.608 36.7829 55.4098 30.9155 54.178 25.3032C52.9462 19.6908 49.7609 14.6985 45.1902 11.2165L48.9827 6.2381Z" stroke="#DCD4FF" stroke-width="14" mask="url(#path-2-inside-1_114_63)"/>
</svg>
