<svg width="61" height="61" viewBox="0 0 61 61" fill="none" xmlns="http://www.w3.org/2000/svg">
<circle cx="30.5" cy="30.5" r="28" stroke="#EEEEEE" stroke-width="5"/>
<mask id="path-2-inside-1_114_43" fill="white">
<path d="M58.4153 18.2124C61.0624 24.2261 61.6967 30.9338 60.2238 37.3371C58.7509 43.7403 55.2496 49.4968 50.2411 53.7495C45.2326 58.0022 38.9846 60.5239 32.4273 60.939C25.8699 61.3542 19.3538 59.6408 13.8489 56.0537C8.34398 52.4666 4.14461 47.1977 1.87589 41.0314C-0.392842 34.865 -0.609619 28.1309 1.25782 21.8314C3.12526 15.5319 6.97707 10.0038 12.2399 6.07014C17.5027 2.13645 23.8951 0.00743411 30.4656 1.94206e-05L30.4726 6.25839C25.2504 6.26429 20.1696 7.95644 15.9867 11.083C11.8038 14.2095 8.74236 18.6032 7.2581 23.6101C5.77385 28.617 5.94615 33.9694 7.74935 38.8704C9.55255 43.7715 12.8902 47.9592 17.2656 50.8103C21.6409 53.6613 26.82 55.0232 32.0318 54.6932C37.2436 54.3632 42.2095 52.359 46.1904 48.9789C50.1712 45.5988 52.954 41.0235 54.1247 35.9342C55.2953 30.8448 54.7912 25.5135 52.6873 20.7337L58.4153 18.2124Z"/>
</mask>
<path d="M58.4153 18.2124C61.0624 24.2261 61.6967 30.9338 60.2238 37.3371C58.7509 43.7403 55.2496 49.4968 50.2411 53.7495C45.2326 58.0022 38.9846 60.5239 32.4273 60.939C25.8699 61.3542 19.3538 59.6408 13.8489 56.0537C8.34398 52.4666 4.14461 47.1977 1.87589 41.0314C-0.392842 34.865 -0.609619 28.1309 1.25782 21.8314C3.12526 15.5319 6.97707 10.0038 12.2399 6.07014C17.5027 2.13645 23.8951 0.00743411 30.4656 1.94206e-05L30.4726 6.25839C25.2504 6.26429 20.1696 7.95644 15.9867 11.083C11.8038 14.2095 8.74236 18.6032 7.2581 23.6101C5.77385 28.617 5.94615 33.9694 7.74935 38.8704C9.55255 43.7715 12.8902 47.9592 17.2656 50.8103C21.6409 53.6613 26.82 55.0232 32.0318 54.6932C37.2436 54.3632 42.2095 52.359 46.1904 48.9789C50.1712 45.5988 52.954 41.0235 54.1247 35.9342C55.2953 30.8448 54.7912 25.5135 52.6873 20.7337L58.4153 18.2124Z" stroke="#DCD4FF" stroke-width="14" mask="url(#path-2-inside-1_114_43)"/>
</svg>
