<svg width="61" height="61" viewBox="0 0 61 61" fill="none" xmlns="http://www.w3.org/2000/svg">
<circle cx="30.5" cy="30.5" r="28" stroke="#EEEEEE" stroke-width="5"/>
<mask id="path-2-inside-1_114_67" fill="white">
<path d="M52.0668 8.93324C57.0563 13.9228 60.1615 20.4881 60.8531 27.5105C61.5448 34.5328 59.7801 41.5778 55.8598 47.4449C51.9395 53.312 46.1062 57.6383 39.3537 59.6867C32.6012 61.735 25.3474 61.3787 18.8282 58.6783C12.309 55.978 6.92775 51.1008 3.60141 44.8776C0.275075 38.6545 -0.790573 31.4705 0.586043 24.5498C1.96266 17.629 5.69636 11.3997 11.151 6.9232C16.6056 2.44671 23.4436 8.77628e-06 30.5 0L30.5 6.25838C24.8915 6.25839 19.4566 8.20304 15.1213 11.761C10.7859 15.3189 7.81831 20.2701 6.72417 25.7707C5.63003 31.2714 6.47701 36.9813 9.12081 41.9274C11.7646 46.8736 16.0416 50.7501 21.2231 52.8963C26.4047 55.0426 32.1701 55.3258 37.537 53.6978C42.9039 52.0697 47.5403 48.6312 50.6562 43.9679C53.772 39.3047 55.1746 33.7053 54.6249 28.1239C54.0752 22.5425 51.6072 17.3243 47.6414 13.3586L52.0668 8.93324Z"/>
</mask>
<path d="M52.0668 8.93324C57.0563 13.9228 60.1615 20.4881 60.8531 27.5105C61.5448 34.5328 59.7801 41.5778 55.8598 47.4449C51.9395 53.312 46.1062 57.6383 39.3537 59.6867C32.6012 61.735 25.3474 61.3787 18.8282 58.6783C12.309 55.978 6.92775 51.1008 3.60141 44.8776C0.275075 38.6545 -0.790573 31.4705 0.586043 24.5498C1.96266 17.629 5.69636 11.3997 11.151 6.9232C16.6056 2.44671 23.4436 8.77628e-06 30.5 0L30.5 6.25838C24.8915 6.25839 19.4566 8.20304 15.1213 11.761C10.7859 15.3189 7.81831 20.2701 6.72417 25.7707C5.63003 31.2714 6.47701 36.9813 9.12081 41.9274C11.7646 46.8736 16.0416 50.7501 21.2231 52.8963C26.4047 55.0426 32.1701 55.3258 37.537 53.6978C42.9039 52.0697 47.5403 48.6312 50.6562 43.9679C53.772 39.3047 55.1746 33.7053 54.6249 28.1239C54.0752 22.5425 51.6072 17.3243 47.6414 13.3586L52.0668 8.93324Z" stroke="#DCD4FF" stroke-width="14" mask="url(#path-2-inside-1_114_67)"/>
</svg>
